<?xml version="1.0" standalone="no"?>
<!DOCTYPE svg PUBLIC "-//W3C//DTD SVG 20010904//EN"
 "http://www.w3.org/TR/2001/REC-SVG-20010904/DTD/svg10.dtd">
<svg version="1.0" xmlns="http://www.w3.org/2000/svg"
 width="16.000000pt" height="16.000000pt" viewBox="0 0 16.000000 16.000000"
 preserveAspectRatio="xMidYMid meet">
<metadata>
Created by potrace 1.11, written by Peter Selinger 2001-2013
</metadata>
<g transform="translate(0.000000,16.000000) scale(0.005674,-0.005674)"
fill="#000000" stroke="none">
<path d="M1746 2793 c124 -43 182 -90 231 -188 29 -57 41 -100 48 -178 8 -78
36 -122 85 -129 39 -6 38 -2 -4 16 -45 19 -52 34 -64 135 -24 201 -155 343
-335 366 -33 4 -25 0 39 -22z"/>
<path d="M1479 2769 c-105 -75 -160 -148 -158 -211 0 -32 1 -32 10 -8 35 85
58 117 126 174 62 52 84 76 70 76 -2 0 -24 -14 -48 -31z"/>
<path d="M1542 2771 c-34 -25 -63 -67 -50 -75 1 -1 27 22 57 51 59 58 56 69
-7 24z"/>
<path d="M1540 2670 c0 -5 24 -13 53 -19 115 -24 244 -131 298 -245 21 -45 32
-86 36 -138 3 -40 16 -98 28 -128 12 -30 26 -66 30 -80 7 -24 7 -25 -12 -7
-43 38 -108 41 -187 11 -9 -3 -16 20 -25 83 -19 140 -13 130 -137 217 -15 11
-41 50 -59 91 -32 69 -67 115 -89 115 -5 0 2 -12 16 -27 15 -16 36 -54 48 -86
26 -70 65 -116 126 -152 25 -15 49 -38 55 -51 15 -42 11 -109 -9 -127 -45 -41
-153 -62 -180 -35 -17 17 -15 48 4 48 8 0 30 14 47 32 31 31 31 31 7 25 -14
-4 -40 -7 -57 -7 -40 0 -44 -17 -5 -23 l27 -4 -28 -2 c-27 -1 -28 -3 -22 -33
11 -50 32 -68 79 -68 44 0 111 26 138 53 15 16 17 15 23 -13 6 -25 1 -37 -26
-68 -52 -59 -109 -190 -109 -252 0 -59 21 -112 56 -139 29 -23 30 -45 4 -96
-21 -42 -25 -65 -12 -65 5 0 14 19 21 42 16 53 21 45 56 -97 15 -60 36 -132
46 -158 11 -26 19 -55 19 -63 0 -16 -39 -70 -102 -141 -38 -42 -45 -60 -51
-123 l-3 -35 -12 27 c-16 39 -34 36 -21 -2 6 -16 16 -30 21 -30 6 0 5 -6 -2
-15 -7 -8 -22 -15 -33 -15 -29 0 -69 -47 -65 -78 5 -38 -16 -37 -30 2 -15 41
-68 116 -83 116 -6 0 -2 -12 9 -27 11 -16 33 -51 50 -79 28 -48 29 -52 14 -80
-15 -29 -15 -29 21 6 24 22 37 44 37 61 0 30 23 54 62 63 34 8 58 51 58 103 0
41 13 64 66 125 l32 36 11 -26 c23 -57 51 -190 51 -244 0 -63 14 -85 60 -95
25 -5 32 -15 60 -94 18 -49 36 -89 40 -89 4 0 -10 48 -32 108 -21 59 -49 150
-62 202 -13 52 -35 132 -50 178 -14 46 -26 97 -26 115 0 18 -11 64 -24 102
-24 70 -100 361 -122 469 -2 10 -6 21 -9 24 -10 10 -5 -33 10 -83 l15 -50 -21
25 c-11 14 -24 35 -29 48 -29 68 8 198 82 289 39 47 47 52 103 63 75 14 119 0
158 -52 71 -93 82 -206 56 -561 -12 -160 -17 -303 -14 -347 10 -116 56 -312
70 -298 2 2 0 21 -6 42 -8 30 -8 41 2 47 8 4 16 3 20 -2 4 -7 18 -5 40 4 l34
14 -38 7 c-25 5 -44 3 -53 -5 -19 -16 -20 -15 -33 62 -15 90 -14 271 4 469 27
298 17 428 -40 540 -14 27 -25 63 -25 80 0 17 -9 48 -19 69 -12 23 -24 76 -30
135 -12 117 -40 185 -108 257 -58 62 -114 102 -179 127 -58 23 -124 34 -124
22z m285 -1597 c27 -84 84 -306 81 -310 -1 -1 -13 4 -26 10 -22 11 -26 21 -31
87 -7 90 -23 156 -51 221 -17 41 -20 79 -4 79 2 0 16 -39 31 -87z"/>
<path d="M1710 2676 c0 -3 27 -19 61 -37 112 -60 156 -133 183 -301 18 -109
36 -148 93 -194 59 -49 93 -120 92 -194 l-1 -55 -15 45 c-18 51 -60 116 -94
145 l-23 20 17 -25 c79 -115 97 -169 79 -237 -14 -51 -14 -120 -1 -148 7 -15
8 -8 5 25 -2 25 2 67 7 93 l11 49 17 -74 c10 -40 18 -105 19 -145 0 -73 6
-103 20 -103 5 0 5 14 0 31 -5 16 -7 51 -4 77 3 26 2 65 -3 87 -7 31 -5 48 8
75 24 50 43 221 30 263 -6 18 -43 64 -82 102 -39 39 -80 88 -92 110 -11 22
-22 34 -24 27 -7 -20 50 -102 112 -160 31 -29 61 -65 66 -80 18 -47 -13 -272
-38 -272 -3 0 -3 43 1 95 10 129 -6 176 -81 248 -71 68 -80 87 -102 212 -22
118 -65 212 -115 250 -29 21 -129 75 -141 75 -3 0 -5 -2 -5 -4z"/>
<path d="M1406 2649 c-14 -11 -26 -27 -26 -36 0 -12 7 -9 26 11 15 14 33 26
40 26 7 0 16 5 19 10 11 18 -32 10 -59 -11z"/>
<path d="M1547 2584 c35 -15 56 -48 68 -104 9 -44 31 -88 58 -117 36 -40 37
-25 1 28 -19 28 -34 61 -34 73 -1 33 -35 102 -61 120 -13 9 -33 16 -44 15 -15
0 -12 -4 12 -15z"/>
<path d="M1374 2534 c-62 -65 -79 -130 -50 -197 7 -18 23 -41 35 -51 26 -24
27 -12 1 21 -46 59 -38 140 21 207 51 57 44 74 -7 20z"/>
<path d="M1366 2472 c-10 -17 2 -70 24 -107 10 -16 21 -51 24 -77 10 -69 31
-80 30 -15 -1 77 -3 89 -13 82 -6 -3 -15 4 -21 16 -8 15 -9 19 -1 15 6 -4 11
0 11 8 0 9 -7 16 -15 16 -8 0 -17 12 -21 28 -3 15 -7 31 -8 37 -1 5 -6 4 -10
-3z m61 -164 c-3 -8 -6 -5 -6 6 -1 11 2 17 5 13 3 -3 4 -12 1 -19z"/>
<path d="M1720 2444 c0 -6 18 -35 40 -64 37 -49 60 -103 60 -139 0 -29 42
-101 71 -122 38 -27 37 -20 -5 30 -24 28 -39 60 -47 99 -6 31 -22 75 -35 97
-29 49 -83 114 -84 99z"/>
<path d="M1470 2390 c0 -5 13 -10 29 -10 17 0 33 5 36 10 4 6 -8 10 -29 10
-20 0 -36 -4 -36 -10z"/>
<path d="M1500 2350 c0 -17 48 -30 72 -21 17 7 19 10 8 14 -36 12 -80 16 -80
7z"/>
<path d="M2079 2251 c6 -10 40 -42 77 -71 37 -29 69 -61 71 -71 5 -17 23 -28
23 -14 0 23 -38 68 -94 110 -36 27 -66 53 -66 57 0 5 -5 8 -10 8 -7 0 -7 -6
-1 -19z"/>
<path d="M1493 2242 c-26 -14 -29 -19 -17 -29 16 -16 24 -16 24 -2 0 7 8 18
17 25 28 20 11 24 -24 6z"/>
<path d="M1434 2032 c-23 -26 -90 -81 -150 -123 -80 -55 -117 -88 -138 -122
-38 -61 -44 -128 -18 -179 l20 -38 -24 0 c-13 0 -24 -4 -24 -9 0 -5 -9 -7 -19
-4 -12 3 -26 -3 -36 -15 -10 -11 -25 -17 -35 -15 -10 3 -27 -5 -39 -18 -25
-27 -19 -39 7 -16 20 18 38 22 44 9 2 -4 21 -17 43 -28 40 -20 145 -150 223
-277 35 -55 152 -185 152 -168 0 6 -26 39 -57 75 -32 35 -74 91 -93 123 -75
125 -163 233 -210 256 -43 21 -45 24 -29 40 9 10 23 15 33 11 11 -4 22 0 30
11 12 17 16 16 55 -16 29 -23 56 -61 87 -120 30 -57 58 -97 85 -119 22 -17 54
-50 70 -73 16 -22 29 -34 29 -27 0 23 -41 79 -81 111 -38 30 -97 115 -87 125
14 13 71 -26 160 -113 54 -52 101 -93 103 -91 9 9 -169 186 -204 203 -18 9
-42 15 -52 12 -12 -3 -19 0 -19 9 0 8 -22 37 -50 64 -27 28 -47 50 -44 50 2 0
-5 18 -16 40 -36 71 -17 164 46 221 43 38 174 126 142 95 -35 -33 -60 -82 -55
-104 2 -12 8 -6 19 18 8 20 32 49 52 65 80 65 132 115 149 144 26 45 11 38
-40 -19 -25 -28 -55 -55 -67 -61 -12 -7 -1 10 25 37 56 61 74 84 63 84 -5 -1
-28 -22 -50 -48z"/>
<path d="M1590 2029 c0 -11 5 -17 10 -14 6 3 10 13 10 21 0 8 -4 14 -10 14 -5
0 -10 -9 -10 -21z"/>
<path d="M1524 2025 c3 -9 0 -34 -8 -55 -17 -49 -4 -53 18 -5 17 35 14 75 -6
75 -5 0 -7 -7 -4 -15z"/>
<path d="M1593 1959 c-18 -5 -33 -14 -33 -20 0 -6 9 -8 20 -5 11 3 30 8 43 11
21 5 21 5 3 -7 -110 -75 -226 -132 -311 -154 l-30 -8 27 -4 c66 -9 338 136
335 178 -1 22 -6 23 -54 9z"/>
<path d="M1222 1738 c-7 -7 -12 -23 -11 -37 1 -24 2 -24 15 8 16 36 15 48 -4
29z"/>
<path d="M1251 1706 c-13 -14 -22 -29 -20 -33 2 -5 17 6 32 24 33 38 22 45
-12 9z"/>
<path d="M844 1439 c-90 -43 -148 -98 -186 -177 -17 -37 -33 -69 -34 -71 -2
-2 -18 6 -36 17 -18 11 -51 25 -73 32 -22 7 -75 28 -118 47 -43 19 -88 33
-100 30 -21 -3 -21 -4 -2 -11 11 -4 58 -25 105 -46 47 -21 103 -44 125 -50 22
-6 54 -18 70 -28 27 -15 30 -23 31 -64 0 -27 -3 -48 -7 -48 -3 0 -9 -12 -12
-27 -13 -60 -14 -60 -185 27 -89 45 -166 80 -173 78 -6 -2 15 -18 47 -34 302
-157 392 -200 402 -190 3 3 -17 15 -44 26 -27 12 -50 23 -52 25 -2 2 4 18 13
36 l17 33 15 -30 c22 -43 43 -64 92 -96 25 -15 40 -28 33 -28 -6 0 8 -20 33
-44 44 -44 75 -116 75 -175 0 -20 2 -23 10 -11 23 36 -15 143 -69 194 -17 17
-31 36 -31 43 0 7 -4 13 -9 13 -4 0 -29 18 -54 40 -60 53 -81 109 -75 194 10
122 75 211 206 279 39 21 72 40 72 43 0 10 -29 1 -86 -27z"/>
<path d="M1021 1397 c54 -53 92 -104 141 -187 37 -63 90 -149 118 -190 28 -41
84 -126 125 -188 74 -112 108 -138 41 -32 -19 30 -45 73 -57 95 -12 22 -50 83
-84 135 -34 52 -83 130 -109 172 -69 114 -119 177 -178 225 -81 65 -79 51 3
-30z"/>
<path d="M1320 1446 c0 -23 216 -96 300 -101 l65 -4 -65 15 c-55 13 -220 65
-282 89 -10 4 -18 5 -18 1z"/>
<path d="M1200 1399 c0 -8 23 -43 50 -79 28 -36 61 -80 73 -97 27 -40 43 -43
23 -5 -23 43 -146 197 -146 181z"/>
<path d="M734 1267 c-6 -10 -19 -19 -29 -21 -25 -4 -32 -26 -7 -26 23 0 56 34
50 52 -3 9 -7 7 -14 -5z"/>
<path d="M1575 933 c8 -31 13 -39 20 -31 9 9 -6 58 -17 58 -6 0 -7 -11 -3 -27z"/>
<path d="M2158 873 c-24 -6 -23 -23 2 -23 11 0 20 7 20 15 0 8 -1 14 -2 14 -2
-1 -11 -3 -20 -6z"/>
<path d="M2198 852 c-1 -4 -21 -14 -42 -23 -56 -20 -59 -41 -4 -22 49 16 75
37 60 47 -6 3 -12 3 -14 -2z"/>
<path d="M935 807 c44 -23 96 -54 115 -69 19 -14 80 -49 135 -77 55 -27 115
-66 134 -85 l34 -35 -17 -63 c-33 -123 -136 -229 -256 -265 -71 -22 -222 -21
-313 0 -100 25 -244 102 -343 184 -23 20 -77 75 -120 124 -43 49 -80 87 -82
84 -16 -16 195 -236 286 -297 160 -108 277 -143 451 -136 131 5 194 31 281
114 65 62 105 133 116 203 5 32 16 52 36 69 32 27 82 117 75 135 -2 7 -18 -16
-35 -50 -17 -34 -41 -68 -53 -76 -19 -14 -23 -12 -60 28 -27 29 -71 58 -137
90 -53 26 -113 60 -133 76 -41 32 -156 89 -179 89 -8 0 21 -20 65 -43z"/>
<path d="M906 763 c13 -32 24 -71 24 -87 0 -22 3 -27 11 -19 20 20 -24 163
-51 163 -4 0 3 -26 16 -57z"/>
<path d="M934 781 c28 -31 96 -171 97 -199 0 -15 4 -36 9 -47 6 -15 9 -8 9 28
1 36 -8 65 -36 120 -38 75 -69 117 -86 117 -6 0 -2 -9 7 -19z"/>
<path d="M2096 769 c-4 -8 5 -52 19 -97 14 -45 29 -106 32 -135 8 -71 22 -95
23 -37 0 69 -63 297 -74 269z"/>
<path d="M2170 404 c0 -44 30 -92 77 -124 60 -39 145 -70 208 -76 58 -5 39 7
-40 25 -72 17 -170 67 -199 102 -17 20 -26 43 -26 65 0 19 -4 34 -10 34 -5 0
-10 -12 -10 -26z"/>
<path d="M2066 298 c4 -18 16 -53 29 -78 12 -25 26 -60 29 -77 4 -18 18 -41
32 -52 34 -27 117 -46 141 -32 16 9 14 10 -11 11 -74 0 -146 44 -146 89 0 9
-14 43 -30 75 -17 32 -30 67 -30 77 0 11 -4 19 -10 19 -5 0 -7 -14 -4 -32z"/>
<path d="M2513 196 c4 -9 0 -12 -13 -9 -10 3 -21 0 -24 -5 -7 -12 67 -26 103
-20 17 2 13 7 -25 25 -32 16 -44 19 -41 9z"/>
<path d="M2299 137 c7 -10 45 -27 82 -38 76 -23 116 -49 105 -67 -9 -15 -61
-16 -87 -1 -11 6 -25 8 -32 6 -7 -2 3 -12 21 -21 46 -24 104 -18 117 11 8 19
18 23 53 23 26 0 41 4 37 10 -3 5 -26 10 -51 10 -25 0 -58 7 -75 15 -16 9 -55
24 -87 34 -31 10 -66 22 -77 27 -18 7 -19 6 -6 -9z"/>
<path d="M2470 142 c0 -9 99 -23 109 -15 11 8 -13 16 -59 21 -31 3 -50 1 -50
-6z"/>
</g>
</svg>
